<?xml version="1.0" encoding="UTF-8"?>
<svg width="320px" height="338px" viewBox="0 0 320 338" version="1.1" xmlns="http://www.w3.org/2000/svg" xmlns:xlink="http://www.w3.org/1999/xlink">
    <!-- Generator: Sketch 42 (36781) - http://www.bohemiancoding.com/sketch -->
    <title>pao12</title>
    <desc>Created with Sketch.</desc>
    <defs></defs>
    <g id="Completed" stroke="none" stroke-width="1" fill="none" fill-rule="evenodd">
        <g id="pao12">
            <g transform="translate(-2.000000, -5.000000)">
                <g id="Container" transform="translate(42.000000, 181.000000)" stroke="#006D77" stroke-width="5">
                    <path d="M0,23.0194668 C0,21.9133474 0.688488164,20.4549612 1.59337727,19.8045236 C1.59337727,19.8045236 22.3397741,0.0166604984 120,0.0166604984 C217.660226,0.0166604984 238.417811,19.8121838 238.417811,19.8121838 C239.29163,20.4773979 240,21.9176863 240,23.0194668 L240,133.013854 C240,134.119974 239.517763,135.768835 238.813175,136.615715 C238.813175,136.615715 229.519663,158.01666 120,158.01666 C10.480337,158.01666 1.18682452,136.615715 1.18682452,136.615715 C0.531359438,135.732582 0,134.115635 0,133.013854 L0,23.0194668 Z" id="front1"></path>
                    <path d="M120,39.0166605 C186.27417,39.0166605 240,31.3009317 240,23.0166605 C240,14.7323893 200.044922,0.0166604984 119.497908,0.0166604984 C38.950894,0.0166604984 0,14.7323893 0,23.0166605 C0,31.3009317 53.72583,39.0166605 120,39.0166605 Z" id="opening"></path>
                </g>
                <g id="Lid" transform="translate(130.000000, 90.016660) rotate(-30.000000) translate(-130.000000, -90.016660) translate(-5.000000, 64.016660)" stroke="#006D77" stroke-width="5">
                    <path d="M270,10 L270,42 C270,42 235.128638,52 135,52 C34.871362,52 -5.68434189e-14,42 -5.68434189e-14,42 L-5.68434189e-14,10.0000052 C-5.68434189e-14,4.4771525 60.4415588,-2.84217094e-14 135,-2.84217094e-14 C209.558441,-2.84217094e-14 270,4.4771525 270,10 Z" id="front2"></path>
                    <ellipse id="top" cx="135" cy="10" rx="135" ry="10"></ellipse>
                </g>
                <path d="M109.87,297 L109.87,262.2 L102.31,264.3 L100.75,258.3 L112.03,254.7 L117.19,254.7 L117.19,297 L109.87,297 Z M125.89,297 L125.89,291.18 L140.35,278.88 C143.310015,276.399988 145.359994,274.350008 146.5,272.73 C147.640006,271.109992 148.21,269.380009 148.21,267.54 C148.21,265.53999 147.570006,263.950006 146.29,262.77 C145.009994,261.589994 143.39001,261 141.43,261 C139.589991,261 137.940007,261.499995 136.48,262.5 C135.019993,263.500005 133.430009,265.099989 131.71,267.3 L126.49,263.22 C128.650011,260.179985 130.879988,257.950007 133.18,256.53 C135.480011,255.109993 138.409982,254.4 141.97,254.4 C146.090021,254.4 149.429987,255.549988 151.99,257.85 C154.550013,260.150012 155.83,263.179981 155.83,266.94 L155.83,267.06 C155.83,270.180016 155.030008,272.839989 153.43,275.04 C151.829992,277.240011 148.99002,279.999983 144.91,283.32 L136.27,290.52 L156.25,290.52 L156.25,297 L125.89,297 Z M183.13,297 L183.13,255 L190.99,255 L203.77,274.86 L216.55,255 L224.41,255 L224.41,297 L217.03,297 L217.03,266.88 L203.77,286.68 L203.53,286.68 L190.39,267 L190.39,297 L183.13,297 Z" id="text" fill="#E29578"></path>
            </g>
        </g>
    </g>
</svg>